<svg width="16" height="13" viewBox="0 0 16 13" fill="none" xmlns="http://www.w3.org/2000/svg">
<path d="M0.571429 2.38775H15.4286C15.7442 2.38775 16 2.15021 16 1.85714V0.530612C16 0.237548 15.7442 0 15.4286 0H0.571429C0.255821 0 0 0.237548 0 0.530612V1.85714C0 2.15021 0.255821 2.38775 0.571429 2.38775ZM0.571429 7.69388H15.4286C15.7442 7.69388 16 7.45633 16 7.16327V5.83673C16 5.54367 15.7442 5.30612 15.4286 5.30612H0.571429C0.255821 5.30612 0 5.54367 0 5.83673V7.16327C0 7.45633 0.255821 7.69388 0.571429 7.69388ZM0.571429 13H15.4286C15.7442 13 16 12.7625 16 12.4694V11.1429C16 10.8498 15.7442 10.6122 15.4286 10.6122H0.571429C0.255821 10.6122 0 10.8498 0 11.1429V12.4694C0 12.7625 0.255821 13 0.571429 13Z" fill="white"/>
</svg>
