<svg width="25" height="30" viewBox="0 0 25 30" fill="none" xmlns="http://www.w3.org/2000/svg">
<path d="M19.6429 9.96429V8.14286C19.6429 4.12547 16.4386 0.857147 12.5 0.857147C8.56138 0.857147 5.35714 4.12547 5.35714 8.14286V9.96429H0V25.4464C0 27.9613 1.99872 30 4.46429 30H20.5357C23.0013 30 25 27.9613 25 25.4464V9.96429H19.6429ZM8.92857 8.14286C8.92857 6.13417 10.5307 4.5 12.5 4.5C14.4693 4.5 16.0714 6.13417 16.0714 8.14286V9.96429H8.92857V8.14286ZM17.8571 14.9732C17.1175 14.9732 16.5179 14.3616 16.5179 13.6071C16.5179 12.8527 17.1175 12.2411 17.8571 12.2411C18.5968 12.2411 19.1964 12.8527 19.1964 13.6071C19.1964 14.3616 18.5968 14.9732 17.8571 14.9732ZM7.14286 14.9732C6.40318 14.9732 5.80357 14.3616 5.80357 13.6071C5.80357 12.8527 6.40318 12.2411 7.14286 12.2411C7.88253 12.2411 8.48214 12.8527 8.48214 13.6071C8.48214 14.3616 7.88253 14.9732 7.14286 14.9732Z" fill="#BDBDBD"/>
</svg>
