<svg width="21" height="22" viewBox="0 0 21 22" fill="none" xmlns="http://www.w3.org/2000/svg">
<path d="M7.84935 0.336569C5.98859 0.821304 4.6282 1.63441 3.11145 3.15116C0.969227 5.26211 -0.000244141 7.57633 -0.000244141 10.516C-0.000244141 13.2837 0.906681 15.6605 2.72053 17.6463C6.45769 21.7275 12.5403 22.2591 16.9811 18.8973C18.6386 17.6307 19.8896 15.8325 20.5932 13.7059C20.9372 12.6426 20.9998 12.1891 20.9998 10.5786C20.9998 8.96799 20.9372 8.51453 20.5932 7.45124C18.8106 2.0566 13.2283 -1.07073 7.84935 0.336569ZM12.728 1.43113C17.419 2.63515 20.4212 6.95086 19.8426 11.6888C19.2485 16.411 15.3237 19.898 10.5545 19.9136C8.92827 19.9293 7.89626 19.6947 6.33259 18.9442C4.76893 18.178 3.67436 17.2241 2.67362 15.723C1.71979 14.3001 1.25069 12.8928 1.14123 11.0946C1.03177 9.32763 1.26632 8.09234 2.06379 6.43485C2.56416 5.37156 2.93944 4.85555 3.90891 3.91736C6.33259 1.50932 9.52247 0.60239 12.728 1.43113Z" fill="#D7D7D7"/>
<path d="M10.1166 3.26061C10.0541 3.30752 10.0072 5.05883 10.0072 7.1385V10.9069L12.0087 12.8928C13.1189 13.9873 14.104 14.8786 14.1978 14.8786C14.4011 14.8786 14.8545 14.4408 14.8545 14.2219C14.8545 14.1437 14.0101 13.2055 12.9781 12.1579L11.1017 10.2346V6.88831C11.1017 4.48027 11.0548 3.47953 10.9141 3.3388C10.7108 3.13552 10.273 3.08861 10.1166 3.26061Z" fill="#D7D7D7"/>
</svg>
