<svg width="10" height="17" viewBox="0 0 10 17" fill="none" xmlns="http://www.w3.org/2000/svg">
<g clip-path="url(#clip0_1231_3949)">
<path d="M7.76892 1.45098C6.08647 0.26348 3.9126 0.26348 2.23113 1.45098C0.0641645 2.97895 -0.62954 5.95658 0.617747 8.37648L5.00002 16.8801L9.3823 8.37648C10.6296 5.95658 9.93687 2.97895 7.76892 1.45098ZM8.5169 7.87725L5.00101 14.7004L1.48414 7.87725C0.483545 5.93464 1.0391 3.54607 2.77879 2.31993C3.45374 1.84368 4.22639 1.60451 5.00002 1.60451C5.77366 1.60451 6.5463 1.84263 7.22126 2.31888C8.96095 3.54607 9.51749 5.93464 8.5169 7.87725Z" fill="#49A9EF"/>
<path d="M5.00002 2.73551C3.64024 2.73551 2.53308 3.90735 2.53308 5.34655C2.53308 6.78575 3.64024 7.95758 5.00002 7.95758C6.3598 7.95758 7.46697 6.78575 7.46697 5.34655C7.46697 3.90735 6.36079 2.73551 5.00002 2.73551ZM5.00002 6.91317C4.18396 6.91317 3.51986 6.21028 3.51986 5.34655C3.51986 4.48282 4.18396 3.77993 5.00002 3.77993C5.81609 3.77993 6.48019 4.48282 6.48019 5.34655C6.48019 6.21028 5.81609 6.91317 5.00002 6.91317Z" fill="#49A9EF"/>
</g>
<defs>
<clipPath id="clip0_1231_3949">
<rect width="10" height="16.32" fill="white" transform="translate(0 0.560001)"/>
</clipPath>
</defs>
</svg>
