<svg width="16" height="17" viewBox="0 0 16 17" fill="none" xmlns="http://www.w3.org/2000/svg">
<path d="M15.7824 14.4297L12.6666 11.2521C12.5259 11.1086 12.3353 11.029 12.1353 11.029H11.6259C12.4884 9.90387 13.001 8.48876 13.001 6.94935C13.001 3.28727 10.0914 0.319992 6.50048 0.319992C2.90959 0.319992 0 3.28727 0 6.94935C0 10.6114 2.90959 13.5787 6.50048 13.5787C8.00996 13.5787 9.39756 13.056 10.5008 12.1763V12.6959C10.5008 12.8998 10.5789 13.0942 10.7195 13.2377L13.8354 16.4153C14.1292 16.7149 14.6042 16.7149 14.8948 16.4153L15.7793 15.5133C16.0731 15.2137 16.0731 14.7293 15.7824 14.4297ZM6.50048 11.029C4.29094 11.029 2.50018 9.20588 2.50018 6.94935C2.50018 4.696 4.28781 2.86974 6.50048 2.86974C8.71001 2.86974 10.5008 4.69282 10.5008 6.94935C10.5008 9.20269 8.71314 11.029 6.50048 11.029Z" fill="white"/>
</svg>
