<svg width="40" height="30" viewBox="0 0 40 30" fill="none" xmlns="http://www.w3.org/2000/svg">
<path d="M0.32 0.319984C0.04 0.599985 0 2.01999 0 13.08C0 22.48 0.06 25.58 0.24 25.76C0.58 26.1 39.42 26.1 39.76 25.76C39.94 25.58 40 22.48 40 13.08C40 2.01999 39.96 0.599985 39.68 0.319984C39.4 0.0399857 37.34 -1.52588e-05 20 -1.52588e-05C2.66 -1.52588e-05 0.6 0.0399857 0.32 0.319984ZM38.2 13.1V24.4H20H1.8V13.1V1.79998H20H38.2V13.1Z" fill="#7F9D87"/>
<path d="M16.9399 8.03998C16.6199 8.27999 16.5999 8.77999 16.6399 13.2L16.6999 18.1L17.1999 18.16C17.5599 18.2 18.7599 17.56 21.2999 15.98C23.2799 14.76 24.9599 13.64 25.0599 13.52C25.4599 12.9 24.9999 12.48 21.3199 10.18C19.2399 8.85999 17.4799 7.79999 17.3999 7.79999C17.3399 7.79999 17.1199 7.91998 16.9399 8.03998Z" fill="#7F9D87"/>
<path d="M11.7599 28.02C11.3399 28.26 11.2799 29 11.6399 29.36C11.9799 29.7 28.0199 29.7 28.3599 29.36C28.4999 29.22 28.5999 28.94 28.5999 28.7C28.5999 28.46 28.4999 28.18 28.3599 28.04C28.0399 27.72 12.2799 27.7 11.7599 28.02Z" fill="#7F9D87"/>
</svg>
