<svg width="32" height="34" viewBox="0 0 32 34" fill="none" xmlns="http://www.w3.org/2000/svg">
<ellipse cx="16.0008" cy="16.8182" rx="15.9991" ry="16.4607" fill="#7F9D87"/>
<g clip-path="url(#clip0_1236_11554)">
<path d="M22.7469 14.8916C22.6047 14.8916 22.4683 14.9525 22.3678 15.0608C22.2672 15.1692 22.2107 15.3162 22.2107 15.4695V20.093C22.2107 20.2462 22.1542 20.3932 22.0537 20.5016C21.9531 20.61 21.8167 20.6709 21.6745 20.6709H10.9506C10.8084 20.6709 10.672 20.61 10.5715 20.5016C10.4709 20.3932 10.4144 20.2462 10.4144 20.093V15.4695C10.4144 15.3162 10.3579 15.1692 10.2574 15.0608C10.1568 14.9525 10.0204 14.8916 9.87824 14.8916C9.73603 14.8916 9.59964 14.9525 9.49909 15.0608C9.39853 15.1692 9.34204 15.3162 9.34204 15.4695V20.093C9.34242 20.5526 9.51214 20.9933 9.81389 21.3182C10.1153 21.6434 10.5241 21.8264 10.9506 21.8268H21.6745C22.101 21.8264 22.5099 21.6434 22.8113 21.3182C23.113 20.9933 23.2827 20.5526 23.2831 20.093V15.4695C23.2831 15.3162 23.2266 15.1692 23.1261 15.0608C23.0255 14.9525 22.8891 14.8916 22.7469 14.8916Z" fill="white"/>
<path d="M15.9909 18.2436C16.0837 18.3186 16.1966 18.3592 16.3126 18.3592C16.4286 18.3592 16.5415 18.3186 16.6343 18.2436L22.9668 13.1231C23.0656 13.0428 23.1355 12.9282 23.1649 12.7986C23.1942 12.669 23.181 12.5325 23.1276 12.4122C23.0478 12.2344 22.9408 12.0723 22.8113 11.9326C22.5099 11.6073 22.101 11.4244 21.6745 11.424H10.9507C10.5242 11.4244 10.1153 11.6073 9.81393 11.9326C9.68436 12.0723 9.57743 12.2344 9.49757 12.4122C9.44418 12.5325 9.43102 12.669 9.46034 12.7986C9.48966 12.9282 9.55964 13.0428 9.65843 13.1231L15.9909 18.2436ZM10.9507 12.5798H21.6745C21.7243 12.5714 21.7749 12.5714 21.8247 12.5798L16.3126 17.0588L10.8005 12.5798C10.8503 12.5714 10.9009 12.5714 10.9507 12.5798Z" fill="white"/>
</g>
<defs>
<clipPath id="clip0_1236_11554">
<rect width="13.9808" height="19.1788" fill="white" transform="translate(9.32227 6.35101)"/>
</clipPath>
</defs>
</svg>
