<svg width="32" height="34" viewBox="0 0 32 34" fill="none" xmlns="http://www.w3.org/2000/svg">
<ellipse cx="15.9991" cy="16.8182" rx="15.9991" ry="16.4607" fill="#8F5DB7"/>
<path d="M21.2578 11.3213C20.9042 10.9848 19.4731 9.91198 16.2822 9.8976C16.2822 9.8976 12.5206 9.66462 10.6886 11.4019C9.66949 12.4545 9.31032 13.9991 9.27134 15.9117C9.23236 17.8244 9.18502 21.4082 12.529 22.3803H12.5318L12.529 23.8644C12.529 23.8644 12.5067 24.4656 12.8909 24.5864C13.3531 24.7359 13.626 24.2786 14.0687 23.7868C14.3109 23.5164 14.6451 23.1195 14.8984 22.8175C17.1871 23.016 18.944 22.5615 19.1445 22.4954C19.6067 22.34 22.2212 21.9949 22.6444 18.4112C23.0843 14.7124 22.4328 12.3769 21.2578 11.3213ZM21.6448 18.1408C21.2856 21.132 19.1668 21.3219 18.777 21.4513C18.6099 21.506 17.0646 21.9029 15.124 21.7734C15.124 21.7734 13.6761 23.5768 13.2251 24.0456C13.0775 24.1981 12.916 24.1837 12.9188 23.8817C12.9188 23.6832 12.9299 21.4168 12.9299 21.4168C12.9271 21.4168 12.9271 21.4168 12.9299 21.4168C10.0955 20.6057 10.2626 17.554 10.2932 15.9578C10.3238 14.3615 10.6162 13.0528 11.4793 12.1727C13.0302 10.7202 16.2238 10.9359 16.2238 10.9359C18.9218 10.9474 20.2137 11.7873 20.5144 12.0691C21.5084 12.9492 22.0151 15.0546 21.6448 18.1408ZM17.7746 15.8168C17.7858 16.0642 17.4266 16.0814 17.4154 15.8341C17.3848 15.2013 17.098 14.8936 16.5078 14.859C16.2683 14.8447 16.2906 14.4736 16.5273 14.488C17.3041 14.5312 17.7356 14.9914 17.7746 15.8168ZM18.3398 16.1418C18.3677 14.9223 17.6298 13.9674 16.2293 13.861C15.9927 13.8437 16.0177 13.4727 16.2544 13.49C17.8693 13.6108 18.7296 14.7584 18.699 16.1505C18.6962 16.3978 18.3343 16.3863 18.3398 16.1418ZM19.6485 16.5272C19.6512 16.7746 19.2893 16.7775 19.2893 16.5301C19.2726 14.186 17.7607 12.909 15.9258 12.8946C15.6892 12.8917 15.6892 12.5236 15.9258 12.5236C17.9779 12.538 19.629 14.0019 19.6485 16.5272ZM19.3338 19.3488V19.3546C19.0331 19.901 18.4707 20.505 17.8916 20.3123L17.886 20.3037C17.2985 20.134 15.9147 19.3977 15.0404 18.6786C14.5894 18.3105 14.1773 17.8762 13.8599 17.4591C13.5731 17.0881 13.2835 16.648 13.0023 16.1188C12.4093 15.0115 12.2784 14.5168 12.2784 14.5168C12.0918 13.9185 12.6738 13.3375 13.2056 13.0269H13.2111C13.4673 12.8888 13.7123 12.9349 13.8766 13.1391C13.8766 13.1391 14.2218 13.5648 14.3694 13.7747C14.5086 13.9703 14.6952 14.2838 14.7926 14.4593C14.9625 14.7728 14.8567 15.092 14.6896 15.2243L14.3555 15.5004C14.1856 15.6414 14.2079 15.9031 14.2079 15.9031C14.2079 15.9031 14.7035 17.8388 16.5551 18.3277C16.5551 18.3277 16.8085 18.3508 16.9449 18.1753L17.2122 17.8302C17.3403 17.6576 17.6493 17.5483 17.9528 17.7237C18.3621 17.9625 18.8828 18.3335 19.228 18.67C19.4229 18.834 19.4675 19.0842 19.3338 19.3488Z" fill="white"/>
</svg>
