<svg width="33" height="34" viewBox="0 0 33 34" fill="none" xmlns="http://www.w3.org/2000/svg">
<ellipse cx="16.8192" cy="16.8182" rx="15.9991" ry="16.4607" fill="#25D366"/>
<path d="M22.2537 11.9014C20.9149 10.6019 19.1319 9.88718 17.2371 9.88718C13.326 9.88718 10.1435 12.9689 10.1435 16.7561C10.1435 17.9659 10.4694 19.1479 11.0893 20.1906L10.0828 23.7488L13.8436 22.7927C14.8789 23.3404 16.0452 23.6281 17.2339 23.6281H17.2371C21.1449 23.6281 24.3978 20.5464 24.3978 16.7592C24.3978 14.9244 23.5925 13.201 22.2537 11.9014ZM17.2371 22.4709C16.1762 22.4709 15.1377 22.1956 14.2335 21.6758L14.0194 21.552L11.7891 22.1182L12.3834 20.0111L12.2428 19.7945C11.6517 18.8849 11.3417 17.836 11.3417 16.7561C11.3417 13.6094 13.9874 11.0475 17.2403 11.0475C18.8156 11.0475 20.295 11.6415 21.407 12.7214C22.5189 13.8012 23.2027 15.2338 23.1995 16.7592C23.1995 19.909 20.4867 22.4709 17.2371 22.4709ZM20.4707 18.1949C20.295 18.1082 19.4227 17.6936 19.2597 17.6379C19.0967 17.5791 18.9785 17.5513 18.8603 17.7246C18.7421 17.8978 18.4034 18.2815 18.2979 18.3991C18.1957 18.5136 18.0902 18.529 17.9145 18.4424C16.8728 17.9381 16.189 17.542 15.502 16.4003C15.3199 16.0971 15.6841 16.1187 16.0229 15.4628C16.0804 15.3483 16.0516 15.2493 16.0069 15.1626C15.9621 15.076 15.6075 14.2313 15.4605 13.8879C15.3167 13.5537 15.1697 13.6001 15.0611 13.5939C14.9588 13.5877 14.8406 13.5877 14.7224 13.5877C14.6041 13.5877 14.4124 13.6311 14.2495 13.8012C14.0865 13.9745 13.6296 14.3891 13.6296 15.2338C13.6296 16.0785 14.2654 16.8953 14.3517 17.0098C14.4412 17.1243 15.6011 18.857 17.3809 19.6027C18.5056 20.073 18.9466 20.1132 19.5089 20.0328C19.8508 19.9833 20.557 19.6182 20.704 19.2159C20.851 18.8137 20.851 18.4703 20.8062 18.3991C20.7647 18.3217 20.6465 18.2784 20.4707 18.1949Z" fill="white"/>
</svg>
